# xmcd CD database file
#
# Track frame offsets:
#	150
#	12200
#	33637
#	56427
#	81195
#	100675
#	122080
#	147182
#	169520
#
# Disc length: 2583 seconds
#
# Revision: 0
# Processed by: cddbd v1.5.1PL2 Copyright (c) Steve Scherf et al.
# Submitted via: CDex 1.70beta1
#
DISCID=6a0a1509
DTITLE=THE SQUARE - TRUTH
DYEAR=1987
DGENRE=Jazz
TTITLE0=GRAND PRIX
TTITLE1=CELEBRATION
TTITLE2=BEAT IN BEAT
TTITLE3=UNEXPECTED LOVER
TTITLE4=TRUTH
TTITLE5=BREEZE AND YOU
TTITLE6=GIANT SIDE STEPS
TTITLE7=BECAUSE
TTITLE8=TWILIGHT IN UPPER WEST
EXTD=YEAR: 1987
EXTT0=
EXTT1=
EXTT2=
EXTT3=
EXTT4=
EXTT5=
EXTT6=
EXTT7=
EXTT8=
PLAYORDER=
